<?xml version="1.0" encoding="UTF-8"?>
<svg class="crest" xmlns="http://www.w3.org/2000/svg" viewBox="0 0 440 590" width="440" height="590" role="img" aria-label="ACE crest — Alliance for Collective Empowerment and Development">
<defs>
  <clipPath id="shieldClipH"><path d="M90 60 L350 60 L350 200 C350 282 300 342 220 382 C140 342 90 282 90 200 Z"></path></clipPath>
  <linearGradient id="vaneGradH" x1="290" y1="256" x2="252" y2="90" gradientUnits="userSpaceOnUse">
    <stop offset="0" stop-color="#F7EEDB"></stop><stop offset="0.22" stop-color="#E7CD99"></stop>
    <stop offset="0.52" stop-color="#CB9D55"></stop><stop offset="0.8" stop-color="#9A6C2D"></stop><stop offset="1" stop-color="#5C3B13"></stop>
  </linearGradient>
  <radialGradient id="sunGradH" cx="0.5" cy="0.95" r="0.95">
    <stop offset="0" stop-color="#FDE08A"></stop><stop offset="0.55" stop-color="#FCD116"></stop><stop offset="1" stop-color="#E0B408"></stop>
  </radialGradient>
</defs>

<g clip-path="url(#shieldClipH)">
  
  <rect x="86" y="56" width="134" height="146" fill="#DA121A"></rect>
  <rect x="220" y="56" width="136" height="146" fill="#FCD116"></rect>
  <rect x="86" y="200" width="134" height="192" fill="#09A03A"></rect>
  <rect x="220" y="200" width="136" height="192" fill="#000000"></rect>

  <g transform="translate(62,-18) scale(0.58)">
    <g transform="translate(-4,22)">
      <path d="M198 262 C 214 232 220 204 197 197 C 178 191 165 199 161 211" stroke="#3D2408" stroke-width="20" fill="none" stroke-linecap="round"></path>
      <ellipse cx="172" cy="277" rx="41" ry="29" transform="rotate(-15 172 277)" fill="#3D2408"></ellipse>
      <path d="M144 272 C 126 256 115 232 112 209 L 134 222 C 142 243 150 258 154 266 Z" fill="#3D2408" stroke-linejoin="round"></path>
      <circle cx="159" cy="205" r="12" fill="#3D2408"></circle>
      <path d="M198 262 C 214 232 220 204 197 197 C 178 191 165 199 161 211" stroke="#FAF6EF" stroke-width="13.5" fill="none" stroke-linecap="round"></path>
      <ellipse cx="172" cy="277" rx="37.5" ry="25.5" transform="rotate(-15 172 277)" fill="#FAF6EF"></ellipse>
      <path d="M145 270 C 129 256 119 233 117 213 L 134 224 C 142 244 149 257 153 265 Z" fill="#FAF6EF"></path>
      <circle cx="159" cy="204" r="9.5" fill="#FAF6EF"></circle>
      <path d="M152 209 L147 224 L161 213 Z" fill="#3D2408"></path>
      <circle cx="156" cy="202" r="1.7" fill="#3D2408"></circle>
      <path d="M167 300 L161 332 M161 332 L153 336 M161 332 L169 335 M185 297 L190 330 M190 330 L183 334 M190 330 L198 333" stroke="#3D2408" stroke-width="3" fill="none" stroke-linecap="round" stroke-linejoin="round"></path>
      <ellipse cx="150" cy="231" rx="8.5" ry="10.5" fill="#FCD116" stroke="#3D2408" stroke-width="1.6"></ellipse>
      <ellipse cx="147" cy="227.5" rx="2.4" ry="3.2" fill="#FAF6EF" opacity="0.85"></ellipse>
    </g>
  </g>

  <g transform="translate(116.04,19.92) scale(0.64)">
    <path d="M283.02 235.1 C 290 256, 296 268, 300 286" stroke="#3D2408" stroke-width="3" fill="none" stroke-linecap="round"></path>
    <path d="M252 90L254.51 88.36L258.16 90.14L260.67 92.64L262.89 95.32L264.92 98.11L266.82 100.97L268.61 103.9L270.3 106.88L271.9 109.92L273.42 113.01L274.85 116.15L276.21 119.34L277.48 122.59L278.68 125.89L279.81 129.25L280.86 132.66L281.83 136.14L282.73 139.67L283.56 143.27L284.31 146.94L285 150.66L285.61 154.46L286.16 158.32L286.63 162.25L287.05 166.25L287.39 170.33L287.68 174.47L287.9 178.69L288.06 182.98L288.16 187.35L288.2 191.8L288.18 196.33L288.09 200.95L287.94 205.67L287.7 210.49L287.37 215.44L286.89 220.56L286.15 225.98L284.85 231.98L286.01 235.64L287.19 239.3L288.39 242.94L289.6 246.58L290.84 250.22L292.09 253.85L287.02 255.62L285.76 251.97L284.52 248.3L283.3 244.64L282.09 240.96L280.9 237.29L279.74 233.6L275.25 229.36L271.61 225.22L268.39 221.12L265.43 217.03L262.67 212.95L260.08 208.88L257.64 204.8L255.34 200.74L253.18 196.67L251.16 192.62L249.26 188.57L247.5 184.53L245.87 180.49L244.37 176.48L243 172.47L241.76 168.48L240.65 164.51L239.67 160.56L238.83 156.63L238.11 152.72L237.52 148.84L237.06 144.98L236.72 141.15L236.52 137.35L236.43 133.57L236.48 129.84L236.65 126.13L236.94 122.46L237.36 118.83L237.91 115.23L238.58 111.68L239.38 108.17L240.32 104.71L241.41 101.31L242.68 97.97L244.18 94.72L246.03 91.61L249.18 88.98Z" fill="url(#vaneGradH)" stroke="#5C3B13" stroke-width="0.8" stroke-linejoin="round"></path>
    <path d="M285 150 L268 142 M286 170 L266 165 M287 190 L266 188 M286 210 L268 211 M283 228 L270 230 M283 150 L266 140 M281 132 L266 124 M278 116 L264 106 M273 102 L262 92 M283.5 170 L300 165 M284 190 L302 188 M283 210 L300 211" stroke="#5C3B13" stroke-width="0.9" fill="none" opacity="0.55"></path>
    <path d="M290 256 C 262 176, 257 133, 252 90" stroke="#43290B" stroke-width="1.6" fill="none" stroke-linecap="round"></path>
  </g>

  <g fill="none" stroke="#FCD116" stroke-width="5" stroke-linejoin="round" stroke-linecap="round" transform="translate(161,257) scale(1.18) translate(-161,-257)">
    <path d="M150 273 C146 266 134 256 134 249 C134 242 143 241 150 249 C157 241 166 242 166 249 C166 256 154 266 150 273 Z"></path>
    <path d="M172 273 C168 266 156 256 156 249 C156 242 165 241 172 249 C179 241 188 242 188 249 C188 256 176 266 172 273 Z"></path>
  </g>

  <g>
    <g stroke="#FCD116" stroke-width="3" stroke-linecap="round">
      <line x1="296.55" y1="263.79" x2="310.65" y2="258.66"></line>
      <line x1="293.04" y1="257.39" x2="304.94" y2="248.26"></line>
      <line x1="287.77" y1="252.34" x2="296.37" y2="240.05"></line>
      <line x1="281.22" y1="249.11" x2="285.73" y2="234.81"></line>
      <line x1="274" y1="248" x2="274" y2="233"></line>
      <line x1="266.78" y1="249.11" x2="262.27" y2="234.81"></line>
      <line x1="260.23" y1="252.34" x2="251.63" y2="240.05"></line>
      <line x1="254.96" y1="257.39" x2="243.06" y2="248.26"></line>
      <line x1="251.45" y1="263.79" x2="237.35" y2="258.66"></line>
    </g>
    <path d="M254 272 A20 20 0 0 1 294 272 Z" fill="url(#sunGradH)" stroke="#E0B408" stroke-width="1.2"></path>
    <line x1="242" y1="272" x2="306" y2="272" stroke="#FCD116" stroke-width="3" stroke-linecap="round"></line>
  </g>

  <path d="M220 60 L220 382" stroke="#FCD116" stroke-width="3.5" fill="none"></path>
  <path d="M90 200 L350 200" stroke="#FCD116" stroke-width="3.5" fill="none"></path>
</g>

<path d="M90 60 L350 60 L350 200 C350 282 300 342 220 382 C140 342 90 282 90 200 Z" fill="none" stroke="#3D2408" stroke-width="6"></path>
<path d="M104 73 L336 73 L336 200 C336 273 292 327 220 363 C148 327 104 273 104 200 Z" fill="none" stroke="#C9A84C" stroke-width="2"></path>

<text x="220" y="458" text-anchor="middle" font-family="Georgia, 'Times New Roman', serif" font-size="74" font-weight="800" fill="#3D2408" letter-spacing="5">ACE</text>

<g>
  <path d="M70 486 L96 476 L96 506 L70 516 Z" fill="#2A1905"></path>
  <path d="M370 486 L344 476 L344 506 L370 516 Z" fill="#2A1905"></path>
  <path d="M92 472 L348 472 L340 491 L348 510 L92 510 L100 491 Z" fill="#3D2408"></path>
  <text x="220" y="495.5" text-anchor="middle" font-family="Georgia, 'Times New Roman', serif" font-size="10.5" font-weight="600" letter-spacing="1.2" fill="#C9A84C">FOR OUR PEOPLE, BY OUR PEOPLE</text>
</g>

</svg>
